<svg version="1.1" viewBox="0.0 0.0 736.0 308.93438320209975" fill="none" stroke="none" stroke-linecap="square" stroke-miterlimit="10" xmlns:xlink="http://www.w3.org/1999/xlink" xmlns="http://www.w3.org/2000/svg"><clipPath id="p.0"><path d="m0 0l736.0 0l0 308.9344l-736.0 0l0 -308.9344z" clip-rule="nonzero"/></clipPath><g clip-path="url(#p.0)"><path fill="#000000" fill-opacity="0.0" d="m0 0l736.0 0l0 308.9344l-736.0 0z" fill-rule="evenodd"/><path shape-rendering="crispEdges" fill="#d9d2e9" d="m42.015747 58.54331l160.7769 0l0 190.63518l-160.7769 0l0 -190.63518z" fill-rule="nonzero"/><path stroke="#000000" stroke-width="1.0" stroke-linecap="butt" d="m42.015747 58.04462l0 191.63255" fill-rule="nonzero"/><path stroke="#000000" stroke-width="1.0" stroke-linecap="butt" d="m202.79265 58.04462l0 191.63255" fill-rule="nonzero"/><path stroke="#000000" stroke-width="1.0" stroke-linecap="butt" d="m41.51706 58.54331l161.77428 0" fill-rule="nonzero"/><path stroke="#000000" stroke-width="1.0" stroke-linecap="butt" d="m41.51706 249.17848l161.77428 0" fill-rule="nonzero"/><path fill="#000000" fill-opacity="0.0" d="m42.020996 16.52756l171.37009 0l0 42.015747l-171.37009 0z" fill-rule="evenodd"/><path fill="#000000" d="m74.92205 43.447556l2.015625 -9.671875l1.5 0l-0.359375 1.6875q0.96875 -1.0 1.8125 -1.453125q0.859375 -0.453125 1.734375 -0.453125q1.1875 0 1.84375 0.640625q0.671875 0.625 0.671875 1.703125q0 0.53125 -0.234375 1.6875l-1.234375 5.859375l-1.640625 0l1.28125 -6.125q0.1875 -0.890625 0.1875 -1.328125q0 -0.484375 -0.328125 -0.78125q-0.328125 -0.296875 -0.953125 -0.296875q-1.28125 0 -2.265625 0.90625q-0.984375 0.90625 -1.453125 3.125l-0.9375 4.5l-1.640625 0z" fill-rule="nonzero"/><path fill="#000000" d="m97.35607 43.447556l0 -1.21875q-0.90625 1.4375 -2.703125 1.4375q-1.15625 0 -2.125 -0.640625q-0.96875 -0.640625 -1.5 -1.78125q-0.53125 -1.140625 -0.53125 -2.625q0 -1.453125 0.484375 -2.625q0.484375 -1.1875 1.4375 -1.8125q0.96875 -0.625 2.171875 -0.625q0.875 0 1.546875 0.375q0.6875 0.359375 1.109375 0.953125l0 -4.796873l1.640625 0l0 13.359373l-1.53125 0zm-5.171875 -4.828125q0 1.859375 0.78125 2.78125q0.78125 0.921875 1.84375 0.921875q1.078125 0 1.828125 -0.875q0.75 -0.890625 0.75 -2.6875q0 -1.984375 -0.765625 -2.90625q-0.765625 -0.9375 -1.890625 -0.9375q-1.078125 0 -1.8125 0.890625q-0.734375 0.890625 -0.734375 2.8125zm8.672592 -0.015625q0 -2.6875 1.484375 -3.96875q1.25 -1.078125 3.046875 -1.078125q2.0 0 3.265625 1.3125q1.265625 1.296875 1.265625 3.609375q0 1.859375 -0.5625 2.9375q-0.5625 1.0625 -1.640625 1.65625q-1.0625 0.59375 -2.328125 0.59375q-2.03125 0 -3.28125 -1.296875q-1.25 -1.3125 -1.25 -3.765625zm1.6875 0q0 1.859375 0.796875 2.796875q0.8125 0.921875 2.046875 0.921875q1.21875 0 2.03125 -0.921875q0.8125 -0.9375 0.8125 -2.84375q0 -1.796875 -0.8125 -2.71875q-0.8125 -0.921875 -2.03125 -0.921875q-1.234375 0 -2.046875 0.921875q-0.796875 0.90625 -0.796875 2.765625zm15.610092 1.296875l1.609375 0.21875q-0.265625 1.65625 -1.359375 2.609375q-1.078125 0.9375 -2.671875 0.9375q-1.984375 0 -3.1875 -1.296875q-1.203125 -1.296875 -1.203125 -3.71875q0 -1.578125 0.515625 -2.75q0.515625 -1.171875 1.578125 -1.75q1.0625 -0.59375 2.3125 -0.59375q1.578125 0 2.578125 0.796875q1.0 0.796875 1.28125 2.265625l-1.59375 0.234375q-0.234375 -0.96875 -0.8125 -1.453125q-0.578125 -0.5 -1.390625 -0.5q-1.234375 0 -2.015625 0.890625q-0.78125 0.890625 -0.78125 2.8125q0 1.953125 0.75 2.84375q0.75 0.875 1.953125 0.875q0.96875 0 1.609375 -0.59375q0.65625 -0.59375 0.828125 -1.828125zm9.34375 3.546875l0 -1.421875q-1.125 1.640625 -3.0625 1.640625q-0.859375 0 -1.609375 -0.328125q-0.734375 -0.328125 -1.09375 -0.828125q-0.359375 -0.5 -0.5 -1.21875q-0.109375 -0.46875 -0.109375 -1.53125l0 -5.984375l1.640625 0l0 5.359375q0 1.28125 0.109375 1.734375q0.15625 0.640625 0.65625 1.015625q0.5 0.375 1.234375 0.375q0.734375 0 1.375 -0.375q0.65625 -0.390625 0.921875 -1.03125q0.265625 -0.65625 0.265625 -1.890625l0 -5.1875l1.6406326 0l0 9.671875l-1.4687576 0zm4.0476 0l0 -9.671875l1.46875 0l0 1.359375q0.453125 -0.71875 1.203125 -1.140625q0.765625 -0.4375 1.71875 -0.4375q1.078125 0 1.765625 0.453125q0.6875 0.4375 0.96875 1.234375q1.15625 -1.6875 2.984375 -1.6875q1.453125 0 2.21875 0.796875q0.78125 0.796875 0.78125 2.453125l0 6.640625l-1.640625 0l0 -6.09375q0 -0.984375 -0.15625 -1.40625q-0.15625 -0.4375 -0.578125 -0.703125q-0.421875 -0.265625 -0.984375 -0.265625q-1.015625 0 -1.6875 0.6875q-0.671875 0.671875 -0.671875 2.15625l0 5.625l-1.640625 0l0 -6.28125q0 -1.09375 -0.40625 -1.640625q-0.40625 -0.546875 -1.3125 -0.546875q-0.6875 0 -1.28125 0.359375q-0.59375 0.359375 -0.859375 1.0625q-0.25 0.703125 -0.25 2.03125l0 5.015625l-1.640625 0zm22.165802 -3.109375l1.6875 0.203125q-0.40625 1.484375 -1.484375 2.3125q-1.078125 0.8125 -2.765625 0.8125q-2.125 0 -3.375 -1.296875q-1.234375 -1.3125 -1.234375 -3.671875q0 -2.453125 1.25 -3.796875q1.265625 -1.34375 3.265625 -1.34375q1.9375 0 3.15625 1.328125q1.234375 1.3125 1.234375 3.703125q0 0.15625 0 0.4375l-7.21875 0q0.09375 1.59375 0.90625 2.453125q0.8125 0.84375 2.015625 0.84375q0.90625 0 1.546875 -0.46875q0.640625 -0.484375 1.015625 -1.515625zm-5.390625 -2.65625l5.40625 0q-0.109375 -1.21875 -0.625 -1.828125q-0.78125 -0.953125 -2.03125 -0.953125q-1.125 0 -1.90625 0.765625q-0.765625 0.75 -0.84375 2.015625zm9.141342 5.765625l0 -9.671875l1.46875 0l0 1.375q1.0625 -1.59375 3.078125 -1.59375q0.875 0 1.609375 0.3125q0.734375 0.3125 1.09375 0.828125q0.375 0.5 0.515625 1.203125q0.09375 0.453125 0.09375 1.59375l0 5.953125l-1.640625 0l0 -5.890625q0 -1.0 -0.203125 -1.484375q-0.1875 -0.5 -0.671875 -0.796875q-0.484375 -0.296875 -1.140625 -0.296875q-1.046875 0 -1.8125 0.671875q-0.75 0.65625 -0.75 2.515625l0 5.28125l-1.640625 0zm13.953827 -1.46875l0.234375 1.453125q-0.6875 0.140625 -1.234375 0.140625q-0.89060974 0 -1.3906097 -0.28125q-0.484375 -0.28125 -0.6875 -0.734375q-0.203125 -0.46875 -0.203125 -1.9375l0 -5.578125l-1.203125 0l0 -1.265625l1.203125 0l0 -2.390623l1.625 -0.984375l0 3.374998l1.6562347 0l0 1.265625l-1.6562347 0l0 5.671875q0 0.6875 0.078125 0.890625q0.09375 0.203125 0.28123474 0.328125q0.203125 0.109375 0.578125 0.109375q0.265625 0 0.71875 -0.0625zm0.9489441 -1.421875l1.625 -0.25q0.125 0.96875 0.75 1.5q0.625 0.515625 1.75 0.515625q1.125 0 1.671875 -0.453125q0.546875 -0.46875 0.546875 -1.09375q0 -0.546875 -0.484375 -0.875q-0.328125 -0.21875 -1.671875 -0.546875q-1.8125 -0.46875 -2.515625 -0.796875q-0.6875 -0.328125 -1.046875 -0.90625q-0.359375 -0.59375 -0.359375 -1.3125q0 -0.640625 0.296875 -1.1875q0.296875 -0.5625 0.8125 -0.921875q0.375 -0.28125 1.03125 -0.46875q0.671875 -0.203125 1.421875 -0.203125q1.140625 0 2.0 0.328125q0.859375 0.328125 1.265625 0.890625q0.421875 0.5625 0.578125 1.5l-1.609375 0.21875q-0.109375 -0.75 -0.640625 -1.171875q-0.515625 -0.421875 -1.46875 -0.421875q-1.140625 0 -1.625 0.375q-0.46875 0.375 -0.46875 0.875q0 0.3125 0.1875 0.578125q0.203125 0.265625 0.640625 0.4375q0.234375 0.09375 1.4375 0.421875q1.75 0.453125 2.4375 0.75q0.6875 0.296875 1.078125 0.859375q0.390625 0.5625 0.390625 1.40625q0 0.828125 -0.484375 1.546875q-0.46875 0.71875 -1.375 1.125q-0.90625 0.390625 -2.046875 0.390625q-1.875 0 -2.875 -0.78125q-0.984375 -0.78125 -1.25 -2.328125z" fill-rule="nonzero"/><path fill="#000000" fill-opacity="0.0" d="m98.15223 130.21523l54.3937 0l0 42.015747l-54.3937 0z" fill-rule="evenodd"/><path fill="#000000" d="m129.86261 152.4321l1.765625 0.25q-0.84375 2.3125 -2.453125 3.5q-1.59375 1.1875 -3.578125 1.1875q-2.4375 0 -3.875 -1.484375q-1.421875 -1.484375 -1.421875 -4.265625q0 -3.609375 2.171875 -5.96875q1.9375 -2.09375 4.796875 -2.09375q2.125 0 3.4375 1.140625q1.328125 1.125 1.53125 3.0625l-1.671875 0.140625q-0.25 -1.4375 -1.078125 -2.15625q-0.828125 -0.71875 -2.125 -0.71875q-2.453125 0 -3.96875 2.1875q-1.3125 1.875 -1.3125 4.453125q0 2.046875 1.015625 3.140625q1.015625 1.078125 2.625 1.078125q1.390625 0 2.5 -0.890625q1.125 -0.90625 1.640625 -2.5625z" fill-rule="nonzero"/><path fill="#000000" fill-opacity="0.0" d="m46.183727 48.889763l158.3307 0.44094467" fill-rule="evenodd"/><path stroke="#000000" stroke-width="1.0" stroke-linejoin="round" stroke-linecap="butt" d="m52.1837 48.906475l146.33075 0.4075203" fill-rule="evenodd"/><path fill="#000000" stroke="#000000" stroke-width="1.0" stroke-linecap="butt" d="m52.188305 47.25475l-4.5426826 1.6390877l4.5334816 1.6643639z" fill-rule="evenodd"/><path fill="#000000" stroke="#000000" stroke-width="1.0" stroke-linecap="butt" d="m198.50986 50.965725l4.542679 -1.6390877l-4.533478 -1.6643639z" fill-rule="evenodd"/><path fill="#000000" fill-opacity="0.0" d="m30.640419 249.47769l2.1102371 -190.20473" fill-rule="evenodd"/><path stroke="#000000" stroke-width="1.0" stroke-linejoin="round" stroke-linecap="butt" d="m30.706982 243.47806l1.9771118 -178.20546" fill-rule="evenodd"/><path fill="#000000" stroke="#000000" stroke-width="1.0" stroke-linecap="butt" d="m29.055353 243.45973l1.601284 4.5561523l1.7019749 -4.5195007z" fill-rule="evenodd"/><path fill="#000000" stroke="#000000" stroke-width="1.0" stroke-linecap="butt" d="m34.335724 65.290924l-1.601284 -4.5561447l-1.7019768 4.519493z" fill-rule="evenodd"/><path fill="#000000" fill-opacity="0.0" d="m0 249.43045l0 -190.11024l42.015747 0l0 190.11024z" fill-rule="evenodd"/><path fill="#000000" d="m26.919998 187.44832l-9.671875 -2.015625l0 -1.65625l1.59375 0.34375q-1.03125 -0.921875 -1.421875 -1.640625q-0.390625 -0.734375 -0.390625 -1.578125q0 -0.90625 0.484375 -1.515625q0.46875 -0.609375 1.328125 -0.796875q-0.90625 -0.734375 -1.359375 -1.546875q-0.453125 -0.8125 -0.453125 -1.71875q0 -1.21875 0.578125 -1.8125q0.5625 -0.609375 1.609375 -0.609375q0.4375 0 1.46875 0.203125l6.234375 1.3125l0 1.640625l-6.390625 -1.328125q-0.78125 -0.171875 -1.125 -0.171875q-0.46875 0 -0.734375 0.296875q-0.28125 0.296875 -0.28125 0.84375q0 0.75 0.453125 1.515625q0.4375 0.765625 1.171875 1.1875q0.71875 0.421875 2.21875 0.734375l4.6875 0.984375l0 1.65625l-6.53125 -1.375q-0.671875 -0.140625 -0.953125 -0.140625q-0.46875 0 -0.75 0.296875q-0.296875 0.296875 -0.296875 0.765625q0 0.703125 0.453125 1.484375q0.4375 0.765625 1.234375 1.25q0.796875 0.46875 2.265625 0.78125l4.578125 0.953125l0 1.65625z" fill-rule="nonzero"/><path fill="#000000" d="m25.451248 162.52109l1.453125 -0.234375q0.140625 0.6875 0.140625 1.234375q0 0.890625 -0.28125 1.390625q-0.28125 0.484375 -0.734375 0.6875q-0.46875 0.203125 -1.9375 0.203125l-5.578125 0l0 1.203125l-1.265625 0l0 -1.203125l-2.390625 0l-0.984375 -1.625l3.375 0l0 -1.65625l1.265625 0l0 1.65625l5.671875 0q0.6875 0 0.890625 -0.078125q0.203125 -0.09375 0.328125 -0.28125q0.109375 -0.203125 0.109375 -0.578125q0 -0.265625 -0.0625 -0.71875zm-1.640625 -8.230179l0.203125 -1.6875q1.484375 0.40625 2.3125 1.484375q0.8125 1.078125 0.8125 2.765625q0 2.125 -1.296875 3.375q-1.3125 1.234375 -3.671875 1.234375q-2.453125 0 -3.796875 -1.25q-1.34375 -1.265625 -1.34375 -3.265625q0 -1.9375 1.328125 -3.15625q1.3125 -1.234375 3.703125 -1.234375q0.15625 0 0.4375 0l0 7.21875q1.59375 -0.09375 2.453125 -0.90625q0.84375 -0.8125 0.84375 -2.015625q0 -0.90625 -0.46875 -1.546875q-0.484375 -0.640625 -1.515625 -1.015625zm-2.65625 5.390625l0 -5.40625q-1.21875 0.109375 -1.828125 0.625q-0.953125 0.78125 -0.953125 2.03125q0 1.125 0.765625 1.90625q0.75 0.765625 2.015625 0.84375zm5.765625 -9.125717l-9.671875 0l0 -1.46875l1.46875 0q-1.03125 -0.5625 -1.359375 -1.03125q-0.328125 -0.484375 -0.328125 -1.0625q0 -0.828125 0.53125 -1.6875l1.515625 0.5625q-0.359375 0.609375 -0.359375 1.203125q0 0.546875 0.328125 0.96875q0.328125 0.421875 0.890625 0.609375q0.875 0.28125 1.921875 0.28125l5.0625 0l0 1.625zm0 -6.228302l-9.671875 0l0 -1.46875l1.359375 0q-0.71875 -0.453125 -1.140625 -1.203125q-0.4375 -0.765625 -0.4375 -1.71875q0 -1.078125 0.453125 -1.765625q0.4375 -0.6875 1.234375 -0.96875q-1.6875 -1.15625 -1.6875 -2.984375q0 -1.453125 0.796875 -2.21875q0.796875 -0.78125 2.453125 -0.78125l6.640625 0l0 1.640625l-6.09375 0q-0.984375 0 -1.40625 0.15625q-0.4375 0.15625 -0.703125 0.578125q-0.265625 0.421875 -0.265625 0.984375q0 1.015625 0.6875 1.6875q0.671875 0.671875 2.15625 0.671875l5.625 0l0 1.640625l-6.28125 0q-1.09375 0 -1.640625 0.40625q-0.546875 0.40625 -0.546875 1.3125q0 0.6875 0.359375 1.28125q0.359375 0.59375 1.0625 0.859375q0.703125 0.25 2.03125 0.25l5.015625 0l0 1.640625zm-2.890625 -14.884552l-0.25 -1.625q0.96875 -0.125 1.5 -0.75q0.515625 -0.625 0.515625 -1.75q0 -1.125 -0.453125 -1.671875q-0.46875 -0.546875 -1.09375 -0.546875q-0.546875 0 -0.875 0.484375q-0.21875 0.328125 -0.546875 1.671875q-0.46875 1.8125 -0.796875 2.515625q-0.328125 0.6875 -0.90625 1.046875q-0.59375 0.359375 -1.3125 0.359375q-0.640625 0 -1.1875 -0.296875q-0.5625 -0.296875 -0.921875 -0.8125q-0.28125 -0.375 -0.46875 -1.03125q-0.203125 -0.671875 -0.203125 -1.421875q0 -1.140625 0.328125 -2.0q0.328125 -0.859375 0.890625 -1.265625q0.5625 -0.421875 1.5 -0.578125l0.21875 1.609375q-0.75 0.109375 -1.171875 0.640625q-0.421875 0.515625 -0.421875 1.46875q0 1.140625 0.375 1.625q0.375 0.46875 0.875 0.46875q0.3125 0 0.578125 -0.1875q0.265625 -0.203125 0.4375 -0.640625q0.09375 -0.234375 0.421875 -1.4375q0.453125 -1.75 0.75 -2.4375q0.296875 -0.6875 0.859375 -1.078125q0.5625 -0.39063263 1.40625 -0.39063263q0.828125 0 1.546875 0.48438263q0.71875 0.46875 1.125 1.375q0.390625 0.90625 0.390625 2.046875q0 1.875 -0.78125 2.875q-0.78125 0.984375 -2.328125 1.25z" fill-rule="nonzero"/><path shape-rendering="crispEdges" fill="#d9d2e9" d="m239.24278 58.54331l60.29396 0l0 190.63518l-60.29396 0l0 -190.63518z" fill-rule="nonzero"/><path shape-rendering="crispEdges" fill="#d9d9d9" d="m299.53674 58.54331l60.293976 0l0 190.63518l-60.293976 0l0 -190.63518z" fill-rule="nonzero"/><path stroke="#000000" stroke-width="1.0" stroke-linecap="butt" d="m239.24278 58.04462l0 191.63255" fill-rule="nonzero"/><path stroke="#000000" stroke-width="1.0" stroke-linecap="butt" d="m299.53674 58.04462l0 191.63255" fill-rule="nonzero"/><path stroke="#000000" stroke-width="1.0" stroke-linecap="butt" d="m359.83072 58.04462l0 191.63255" fill-rule="nonzero"/><path stroke="#000000" stroke-width="1.0" stroke-linecap="butt" d="m238.7441 58.54331l121.58531 0" fill-rule="nonzero"/><path stroke="#000000" stroke-width="1.0" stroke-linecap="butt" d="m238.7441 249.17848l121.58531 0" fill-rule="nonzero"/><path fill="#000000" fill-opacity="0.0" d="m241.63124 130.21523l54.393692 0l0 42.015747l-54.393692 0z" fill-rule="evenodd"/><path fill="#000000" d="m262.68542 143.77585l1.78125 0l-1.71875 8.21875q-0.203125 1.015625 -0.203125 1.5q0 1.078125 0.84375 1.734375q0.84375 0.65625 2.140625 0.65625q1.015625 0 1.890625 -0.46875q0.875 -0.46875 1.390625 -1.375q0.515625 -0.921875 0.921875 -2.90625l1.53125 -7.359375l1.796875 0l-1.640625 7.84375q-0.40625 2.0 -1.09375 3.171875q-0.6875 1.171875 -1.90625 1.875q-1.203125 0.703125 -2.8125 0.703125q-1.5 0 -2.609375 -0.5q-1.109375 -0.5 -1.671875 -1.375q-0.546875 -0.890625 -0.546875 -2.015625q0 -0.703125 0.375 -2.40625l1.53125 -7.296875z" fill-rule="nonzero"/><path fill="#000000" d="m272.8771 164.13522l1.875 -8.90625l1.078125 0l-1.140625 5.53125l3.203125 -3.078125l1.453125 0l-2.75 2.40625l1.65625 4.046875l-1.203125 0l-1.28125 -3.3125l-1.34375 1.15625l-0.4375 2.15625l-1.109375 0z" fill-rule="nonzero"/><path fill="#000000" fill-opacity="0.0" d="m207.28477 130.21523l27.46457 0l0 42.015747l-27.46457 0z" fill-rule="evenodd"/><path fill="#000000" d="m226.14415 149.27585l-8.828125 0l0 -1.515625l8.828125 0l0 1.515625zm0 4.0625l-8.828125 0l0 -1.53125l8.828125 0l0 1.53125z" fill-rule="nonzero"/><path shape-rendering="crispEdges" fill="#cfe2f3" d="m376.17584 102.874016l120.5827 0l0 107.24934l-120.5827 0l0 -107.24934z" fill-rule="nonzero"/><path stroke="#000000" stroke-width="1.0" stroke-linecap="butt" d="m376.17584 102.37533l0 108.24671" fill-rule="nonzero"/><path stroke="#000000" stroke-width="1.0" stroke-linecap="butt" d="m496.75854 102.37533l0 108.24671" fill-rule="nonzero"/><path stroke="#000000" stroke-width="1.0" stroke-linecap="butt" d="m375.67715 102.874016l121.58008 0" fill-rule="nonzero"/><path stroke="#000000" stroke-width="1.0" stroke-linecap="butt" d="m375.67715 210.12335l121.58008 0" fill-rule="nonzero"/><path fill="#d9d9d9" d="m382.52997 97.93085l118.92914 104.53543l-11.055145 12.598419l-118.92911 -104.53542z" fill-rule="evenodd"/><path stroke="#000000" stroke-width="1.0" stroke-linejoin="round" stroke-linecap="butt" d="m382.52997 97.93085l118.92914 104.53543l-11.055145 12.598419l-118.92911 -104.53542z" fill-rule="evenodd"/><path shape-rendering="crispEdges" fill="#d9d2e9" d="m518.67584 102.87533l200.97113 0l0 44.574806l-200.97113 0l0 -44.574806z" fill-rule="nonzero"/><path shape-rendering="crispEdges" fill="#d9d9d9" d="m518.67584 147.45013l200.97113 0l0 62.671906l-200.97113 0l0 -62.671906z" fill-rule="nonzero"/><path stroke="#000000" stroke-width="1.0" stroke-linecap="butt" d="m518.67584 102.37664l0 108.24409" fill-rule="nonzero"/><path stroke="#000000" stroke-width="1.0" stroke-linecap="butt" d="m719.647 102.37664l0 108.24409" fill-rule="nonzero"/><path stroke="#000000" stroke-width="1.0" stroke-linecap="butt" d="m518.1772 102.87533l201.9685 0" fill-rule="nonzero"/><path stroke="#000000" stroke-width="1.0" stroke-linecap="butt" d="m518.1772 147.45013l201.9685 0" fill-rule="nonzero"/><path stroke="#000000" stroke-width="1.0" stroke-linecap="butt" d="m518.1772 210.12204l201.9685 0" fill-rule="nonzero"/><path fill="#000000" fill-opacity="0.0" d="m594.2979 104.16798l54.393677 0l0 42.015755l-54.393677 0z" fill-rule="evenodd"/><path fill="#000000" d="m613.24005 131.08798l-2.5625 -13.359383l1.71875 0l1.546875 7.96875q0.4375 2.171875 0.5625 3.5000076q0.84375 -1.7187576 1.375 -2.7187576l4.765625 -8.75l1.84375 0l-7.328125 13.359383l-1.921875 0z" fill-rule="nonzero"/><path fill="#000000" d="m621.23047 138.08798l1.875 -8.90625l1.078125 0l-1.140625 5.53125l3.203125 -3.078125l1.453125 0l-2.75 2.40625l1.65625 4.046875l-1.203125 0l-1.28125 -3.3125l-1.34375 1.15625l-0.4375 2.15625l-1.109375 0z" fill-rule="nonzero"/><path fill="#000000" d="m629.8554 124.087975l1.640625 -7.890625l-2.921875 0l0.21875 -1.015625l7.0 0l-0.203125 1.015625l-2.90625 0l-1.640625 7.890625l-1.1875 0z" fill-rule="nonzero"/><path fill="#d9d2e9" d="m382.5311 97.93145l43.08661 37.85827l-11.055115 12.598434l-43.08661 -37.858276z" fill-rule="evenodd"/><path stroke="#000000" stroke-width="1.0" stroke-linejoin="round" stroke-linecap="butt" d="m382.5311 97.93145l43.08661 37.85827l-11.055115 12.598434l-43.08661 -37.858276z" fill-rule="evenodd"/><path fill="#000000" fill-opacity="0.0" d="m370.1824 102.15223l54.393707 0l0 42.015755l-54.393707 0z" fill-rule="evenodd"/><path fill="#000000" d="m389.36066 124.75973l1.75 -0.171875l-0.015625 0.46875q0 0.765625 0.34375 1.421875q0.359375 0.640625 1.171875 1.0q0.828125 0.34375 1.953125 0.34375q1.609375 0 2.453125 -0.703125q0.84375 -0.703125 0.84375 -1.609375q0 -0.625 -0.453125 -1.140625q-0.453125 -0.515625 -2.484375 -1.390625q-1.578125 -0.6875 -2.140625 -1.046875q-0.90625 -0.59375 -1.34375 -1.28125q-0.421875 -0.703125 -0.421875 -1.59375q0 -1.03125 0.5625 -1.859375q0.5625 -0.828125 1.65625 -1.265625q1.09375 -0.4375 2.453125 -0.4375q1.640625 0 2.75 0.546875q1.125 0.546875 1.625 1.453125q0.515625 0.90625 0.515625 1.734375q0 0.09375 -0.015625 0.28125l-1.71875 0.140625q0 -0.578125 -0.109375 -0.890625q-0.171875 -0.5625 -0.5625 -0.9375q-0.375 -0.390625 -1.046875 -0.609375q-0.671875 -0.234375 -1.5 -0.234375q-1.453125 0 -2.265625 0.65625q-0.625 0.5 -0.625 1.328125q0 0.484375 0.25 0.875q0.265625 0.390625 0.921875 0.765625q0.484375 0.265625 2.25 1.046875q1.453125 0.640625 2.0 1.0q0.71875 0.484375 1.109375 1.171875q0.390625 0.6875 0.390625 1.5625q0 1.078125 -0.65625 2.0q-0.65625 0.9062576 -1.828125 1.4218826q-1.15625 0.5 -2.671875 0.5q-2.265625 0 -3.703125 -0.984375q-1.421875 -1.0000076 -1.4375 -3.5625076z" fill-rule="nonzero"/><path fill="#000000" d="m400.9136 136.07224l1.875 -8.906258l1.078125 0l-1.140625 5.5312576l3.203125 -3.078125l1.453125 0l-2.75 2.40625l1.65625 4.046875l-1.203125 0l-1.28125 -3.3125l-1.34375 1.15625l-0.4375 2.15625l-1.109375 0z" fill-rule="nonzero"/><path fill="#000000" fill-opacity="0.0" d="m376.17584 102.87664l48.97638 0l0 44.598427l-48.97638 0z" fill-rule="evenodd"/><path stroke="#000000" stroke-width="1.0" stroke-linejoin="round" stroke-linecap="butt" d="m376.17584 102.87664l48.97638 0l0 44.598427l-48.97638 0z" fill-rule="evenodd"/></g></svg>