<?xml version="1.0" encoding="UTF-8" standalone="no"?>
<svg width="651.0238pt" height="321.27536pt" viewBox="0 0 651.0238 321.27536" version="1.1" id="svg208" sodipodi:docname="Simple bipartite graph; two layers.svg" inkscape:version="1.2.1 (ef4d3fba62, 2022-07-19, custom)" xmlns:inkscape="http://www.inkscape.org/namespaces/inkscape" xmlns:sodipodi="http://sodipodi.sourceforge.net/DTD/sodipodi-0.dtd" xmlns="http://www.w3.org/2000/svg" xmlns:svg="http://www.w3.org/2000/svg">
  <defs id="defs212"/>
  <sodipodi:namedview id="namedview210" pagecolor="#ffffff" bordercolor="#666666" borderopacity="1.0" inkscape:showpageshadow="2" inkscape:pageopacity="0.0" inkscape:pagecheckerboard="0" inkscape:deskcolor="#d1d1d1" inkscape:document-units="pt" showgrid="false" inkscape:zoom="1.4789795" inkscape:cx="495.61199" inkscape:cy="189.31972" inkscape:window-width="3440" inkscape:window-height="1403" inkscape:window-x="1920" inkscape:window-y="0" inkscape:window-maximized="1" inkscape:current-layer="svg208"/>
  <path style="fill:none;stroke:#000000;stroke-width:5" d="m 595.43405,70.779898 c -10,45.000002 -40,135.000002 -50,180.000002" id="path156"/>
  <path style="fill:none;stroke:#000000;stroke-width:5" d="m 70.434045,55.779898 c 85.000005,40 350.000005,165.000002 440.000005,210.000002" id="path170"/>
  <path style="fill:none;stroke:#000000;stroke-width:5" d="m 55.434045,70.779898 c 10,45.000002 40,135.000002 50.000005,180.000002" id="path172"/>
  <path style="fill:none;stroke:#000000;stroke-width:5" d="m 205.43405,65.779898 c 40,45.000002 130,145.000002 170,190.000002" id="path178"/>
  <path style="fill:none;stroke:#000000;stroke-width:5" d="m 305.43405,65.779898 c -40,45.000002 -130,145.000002 -170,190.000002" id="path192"/>
  <path style="fill:none;stroke:#000000;stroke-width:5" d="m 315.43405,70.779898 c -10,45.000002 -40,135.000002 -50,180.000002" id="path194"/>
  <path style="fill:none;stroke:#000000;stroke-width:5" d="m 455.43405,70.779898 c -10,45.000002 -40,135.000002 -50,180.000002" id="path198"/>
  <path style="fill:none;stroke:#000000;stroke-width:5" d="m 475.43405,70.779898 c 10,45.000002 40,135.000002 50,180.000002" id="path200"/>
  <g id="g2625" transform="matrix(5,0,0,5,0.4340452,0.77989757)">
    <circle style="fill:#ff0000;fill-opacity:1;stroke:#000000" cx="9" cy="9" r="5.4000001" id="circle166"/>
    <path d="M 9.8621328,12.505168 H 9.0048892 V 7.0426306 Q 8.6953289,7.337902 8.1905103,7.6331753 7.6904503,7.9284467 7.2904043,8.0760843 V 7.2474164 Q 8.0095354,6.909282 8.5476941,6.4282742 9.0858502,5.9472664 9.3096863,5.4948317 h 0.5524465 z" id="path2545" style="font-size:26.6667px;line-height:74.25;font-family:Arial;-inkscape-font-specification:Arial;letter-spacing:0px;word-spacing:0px;baseline-shift:baseline;opacity:0.9;fill:#ffffff;fill-opacity:1;stroke-width:0.365755"/>
  </g>
  <g id="g2629" transform="matrix(5,0,0,5,0.4340452,0.77989757)">
    <circle style="fill:#ff0000;fill-opacity:1;stroke:#000000" cx="37" cy="9" r="5.4000001" id="circle176"/>
    <path d="m 39.30779,11.681264 v 0.823905 h -4.614821 q -0.0095,-0.309558 0.100013,-0.595306 0.176211,-0.471483 0.561968,-0.928681 0.390522,-0.457195 1.123942,-1.0572645 1.138227,-0.9334415 1.538272,-1.4763618 0.400048,-0.5476825 0.400048,-1.0334545 0,-0.5095819 -0.366711,-0.8572402 -0.361946,-0.3524225 -0.947728,-0.3524225 -0.619118,0 -0.990591,0.3714719 -0.371472,0.3714719 -0.376233,1.0286904 l -0.881057,-0.090488 q 0.09049,-0.9858293 0.681033,-1.5001735 0.590544,-0.5191084 1.585899,-0.5191084 1.004878,0 1.590659,0.5572082 0.585784,0.5572091 0.585784,1.3811128 0,0.4190954 -0.171449,0.8239036 -0.171449,0.4048084 -0.571496,0.8524797 -0.395283,0.4476713 -1.319201,1.2287158 -0.771515,0.647693 -0.990588,0.881054 -0.219074,0.228598 -0.361948,0.461957 z" id="path2547" style="font-size:26.6667px;line-height:74.25;font-family:Arial;-inkscape-font-specification:Arial;letter-spacing:0px;word-spacing:0px;baseline-shift:baseline;opacity:0.9;fill:#ffffff;fill-opacity:1;stroke-width:0.365755"/>
  </g>
  <g id="g2633" transform="matrix(5,0,0,5,0.4340452,0.77989757)">
    <circle style="fill:#ff0000;fill-opacity:1;stroke:#000000" cx="65" cy="9" r="5.4000001" id="circle186"/>
    <path d="m 62.714021,10.600199 0.857242,-0.114297 q 0.147637,0.728654 0.500058,1.052502 0.357184,0.319085 0.866768,0.319085 0.604831,0 1.019165,-0.419098 0.419096,-0.419094 0.419096,-1.038214 0,-0.5905449 -0.385758,-0.9715405 -0.38576,-0.3857608 -0.981066,-0.3857608 -0.242886,0 -0.604833,0.09525 l 0.09525,-0.7524683 q 0.08572,0.00951 0.13811,0.00951 0.547682,0 0.985829,-0.2857477 0.438146,-0.2857476 0.438146,-0.8810548 0,-0.4714821 -0.319084,-0.7810425 Q 65.42386,6.137764 64.919038,6.137764 q -0.500057,0 -0.833428,0.3143217 -0.333373,0.3143208 -0.428623,0.9429662 l -0.857241,-0.152399 q 0.15716,-0.8620043 0.714369,-1.3334865 0.557206,-0.4762473 1.385874,-0.4762473 0.571494,0 1.052502,0.2476479 0.481009,0.2428884 0.733419,0.6667432 0.257172,0.4238606 0.257172,0.9001051 0,0.4524337 -0.242885,0.8239056 -0.242885,0.3714709 -0.719131,0.5905438 0.61912,0.1428733 0.962016,0.595308 0.342897,0.4476704 0.342897,1.1239403 0,0.914392 -0.666743,1.552561 -0.666745,0.633407 -1.685911,0.633407 -0.919153,0 -1.528747,-0.547684 -0.604833,-0.547681 -0.690557,-1.419211 z" id="path2549" style="font-size:26.6667px;line-height:74.25;font-family:Arial;-inkscape-font-specification:Arial;letter-spacing:0px;word-spacing:0px;baseline-shift:baseline;opacity:0.9;fill:#ffffff;fill-opacity:1;stroke-width:0.365755"/>
  </g>
  <g id="g2637" transform="matrix(5,0,0,5,0.4340452,0.77989757)">
    <circle style="fill:#ff0000;fill-opacity:1;stroke:#000000" cx="93" cy="9" r="5.4000001" id="circle196"/>
    <path d="m 93.32958,12.490881 v -1.671623 h -3.028923 v -0.785804 l 3.186084,-4.5243351 h 0.700081 v 4.5243351 h 0.942966 v 0.785804 h -0.942966 v 1.671623 z m 0,-2.457427 V 6.8854704 l -2.185969,3.1479846 z" id="path2551" style="font-size:26.6667px;line-height:74.25;font-family:Arial;-inkscape-font-specification:Arial;letter-spacing:0px;word-spacing:0px;baseline-shift:baseline;opacity:0.9;fill:#ffffff;fill-opacity:1;stroke-width:0.365755"/>
  </g>
  <g id="g2641" transform="matrix(5,0,0,5,0.4340452,0.77989757)">
    <circle style="fill:#ff0000;fill-opacity:1;stroke:#000000" cx="121" cy="9" r="5.4000001" id="circle148"/>
    <path d="m 118.68544,10.554952 0.9001,-0.07621 q 0.10002,0.657221 0.46196,0.990592 0.36671,0.328609 0.88106,0.328609 0.61911,0 1.04774,-0.46672 0.42862,-0.466722 0.42862,-1.238239 0,-0.7334178 -0.41434,-1.1572774 -0.40956,-0.4238587 -1.07631,-0.4238587 -0.41433,0 -0.74771,0.1904988 -0.33337,0.1857355 -0.52386,0.4857701 l -0.80486,-0.1047717 0.67626,-3.5861322 h 3.47184 v 0.8191424 h -2.78604 l -0.37623,1.8764096 q 0.62865,-0.4381457 1.3192,-0.4381457 0.91439,0 1.54304,0.6334058 0.62864,0.6334068 0.62864,1.62876 0,0.947729 -0.55244,1.638285 -0.67151,0.847717 -1.83355,0.847717 -0.95249,0 -1.55733,-0.533395 -0.60006,-0.533394 -0.68579,-1.414449 z" id="path2553" style="font-size:26.6667px;line-height:74.25;font-family:Arial;-inkscape-font-specification:Arial;letter-spacing:0px;word-spacing:0px;baseline-shift:baseline;opacity:0.9;fill:#ffffff;fill-opacity:1;stroke-width:0.365755"/>
  </g>
  <g id="g2645" transform="matrix(5,0,0,5,0.4340452,0.77989757)">
    <circle style="fill:#0000ff;stroke:#000000" cx="23" cy="55" r="5.4000001" id="circle158"/>
    <path d="m 19.896306,58.316337 2.5472,-6.632674 h 0.945586 l 2.714602,6.632674 h -0.999879 l -0.77366,-2.008804 h -2.773419 l -0.728416,2.008804 z m 1.913793,-2.72365 h 2.248594 l -0.692223,-1.83688 q -0.316701,-0.837 -0.47053,-1.375397 -0.126682,0.637931 -0.357422,1.266816 z" id="path2555" style="font-size:26.6667px;line-height:74.25;font-family:Arial;-inkscape-font-specification:Arial;letter-spacing:0px;word-spacing:0px;baseline-shift:baseline;opacity:0.9;fill:#ffffff;fill-opacity:1;stroke-width:0.347467"/>
  </g>
  <g id="g2649" transform="matrix(5,0,0,5,0.4340452,0.77989757)">
    <circle style="fill:#0000ff;stroke:#000000" cx="51" cy="55" r="5.4000001" id="circle162"/>
    <path d="m 48.832763,58.316337 v -6.632674 h 2.488381 q 0.760092,0 1.217046,0.203595 0.461484,0.199071 0.719371,0.619834 0.262413,0.416237 0.262413,0.873198 0,0.425284 -0.230742,0.800805 -0.230743,0.375521 -0.696747,0.606263 0.601735,0.176447 0.922962,0.601734 0.325752,0.425289 0.325752,1.004403 0,0.466006 -0.199071,0.868673 -0.194545,0.398141 -0.484102,0.615309 -0.289557,0.217168 -0.728419,0.330275 -0.434334,0.108585 -1.067743,0.108585 z m 0.877718,-3.845684 h 1.434217 q 0.583637,0 0.837001,-0.07691 0.3348,-0.09953 0.502201,-0.330275 0.171924,-0.23074 0.171924,-0.579115 0,-0.330276 -0.158351,-0.579115 -0.15835,-0.253362 -0.452433,-0.343849 -0.294082,-0.09501 -1.008926,-0.09501 h -1.325633 z m 0,3.062974 h 1.651383 q 0.425288,0 0.597213,-0.03167 0.30313,-0.05429 0.506725,-0.180972 0.203596,-0.126683 0.334801,-0.366472 0.131207,-0.244314 0.131207,-0.561016 0,-0.370998 -0.190023,-0.642456 -0.190024,-0.275985 -0.52935,-0.384569 -0.334798,-0.113109 -0.968204,-0.113109 h -1.533752 z" id="path2557" style="font-size:26.6667px;line-height:74.25;font-family:Arial;-inkscape-font-specification:Arial;letter-spacing:0px;word-spacing:0px;baseline-shift:baseline;opacity:0.9;fill:#ffffff;fill-opacity:1;stroke-width:0.347467"/>
  </g>
  <g id="g2653" transform="matrix(5,0,0,5,0.4340452,0.77989757)">
    <circle style="fill:#0000ff;stroke:#000000" cx="79" cy="55" r="5.4000001" id="circle150"/>
    <path d="m 81.054045,55.990829 0.877726,0.221691 q -0.275993,1.081317 -0.995358,1.651383 -0.714845,0.565542 -1.750918,0.565542 -1.072267,0 -1.746393,-0.434334 -0.669602,-0.438861 -1.022499,-1.266816 -0.348374,-0.827952 -0.348374,-1.778064 0,-1.036071 0.393618,-1.805208 0.39814,-0.77366 1.126558,-1.171801 0.732942,-0.402667 1.610664,-0.402667 0.995355,0 1.674004,0.506727 0.678655,0.506723 0.945579,1.425164 l -0.864144,0.203595 q -0.230736,-0.723893 -0.669601,-1.054171 -0.438859,-0.330276 -1.103936,-0.330276 -0.764613,0 -1.280387,0.366471 -0.51125,0.366473 -0.719369,0.986305 -0.20812,0.615308 -0.20812,1.271337 0,0.846052 0.244315,1.479458 0.248838,0.628882 0.769138,0.941062 0.520297,0.312178 1.126558,0.312178 0.737468,0 1.248715,-0.425286 0.511252,-0.42529 0.692224,-1.26229 z" id="path2559" style="font-size:26.6667px;line-height:74.25;font-family:Arial;-inkscape-font-specification:Arial;letter-spacing:0px;word-spacing:0px;baseline-shift:baseline;opacity:0.9;fill:#ffffff;fill-opacity:1;stroke-width:0.347467"/>
  </g>
  <g id="g2657" transform="matrix(5,0,0,5,0.4340452,0.77989757)">
    <circle style="fill:#0000ff;stroke:#000000" cx="107" cy="55" r="5.4000001" id="circle154"/>
    <path d="m 104.52519,58.316337 v -6.632674 h 4.79579 v 0.78271 h -3.91807 v 2.031426 h 3.66924 v 0.778186 h -3.66924 v 2.257642 h 4.0719 v 0.78271 z" id="path2561" style="font-size:26.6667px;line-height:74.25;font-family:Arial;-inkscape-font-specification:Arial;letter-spacing:0px;word-spacing:0px;baseline-shift:baseline;opacity:0.9;fill:#ffffff;fill-opacity:1;stroke-width:0.347467"/>
  </g>
</svg>